<svg width="24" height="24" viewBox="0 0 24 24" fill="none" xmlns="http://www.w3.org/2000/svg">
<g clip-path="url(#clip0_337_2615)">
<path d="M4.875 18.375H4.125V9H19.875V15.75H19.125V9.75H4.875V18.375Z" fill="#121212"/>
<path d="M19.875 12.75H4.125V9H19.875V12.75ZM4.875 12H19.125V9.75H4.875V12Z" fill="#121212"/>
<path d="M4.125 10.5H19.875V11.25H4.125V10.5Z" fill="#121212"/>
<path d="M18.375 8.25H5.625V5.25H18.375V8.25ZM6.375 7.5H17.625V6H6.375V7.5Z" fill="#121212"/>
<path d="M0.375 22.875H23.625V23.625H0.375V22.875Z" fill="#121212"/>
<path d="M8.625 23.625H2.625V17.625H8.625V23.625ZM3.375 22.875H7.875V18.375H3.375V22.875Z" fill="#121212"/>
<path d="M6.75 21.75H7.125V22.125H6.75V21.75Z" fill="#121212"/>
<path d="M6 21.75H6.375V22.125H6V21.75Z" fill="#121212"/>
<path d="M21 23.625C20.7033 23.625 20.4133 23.537 20.1666 23.3722C19.92 23.2074 19.7277 22.9731 19.6142 22.699C19.5006 22.4249 19.4709 22.1233 19.5288 21.8324C19.5867 21.5414 19.7296 21.2741 19.9393 21.0643C20.1491 20.8546 20.4164 20.7117 20.7074 20.6538C20.9983 20.5959 21.2999 20.6256 21.574 20.7392C21.8481 20.8527 22.0824 21.045 22.2472 21.2916C22.412 21.5383 22.5 21.8283 22.5 22.125C22.5 22.5228 22.342 22.9044 22.0607 23.1857C21.7794 23.467 21.3978 23.625 21 23.625ZM21 21.375C20.8517 21.375 20.7067 21.419 20.5833 21.5014C20.46 21.5838 20.3639 21.7009 20.3071 21.838C20.2503 21.975 20.2355 22.1258 20.2644 22.2713C20.2934 22.4168 20.3648 22.5504 20.4697 22.6553C20.5746 22.7602 20.7082 22.8317 20.8537 22.8606C20.9992 22.8895 21.15 22.8747 21.287 22.8179C21.4241 22.7611 21.5412 22.665 21.6236 22.5417C21.706 22.4183 21.75 22.2733 21.75 22.125C21.75 21.9261 21.671 21.7353 21.5303 21.5947C21.3897 21.454 21.1989 21.375 21 21.375Z" fill="#121212"/>
<path d="M13.875 23.625C13.5783 23.625 13.2883 23.537 13.0416 23.3722C12.795 23.2074 12.6027 22.9731 12.4892 22.699C12.3756 22.4249 12.3459 22.1233 12.4038 21.8324C12.4617 21.5414 12.6046 21.2741 12.8143 21.0643C13.0241 20.8546 13.2914 20.7117 13.5824 20.6538C13.8733 20.5959 14.1749 20.6256 14.449 20.7392C14.7231 20.8527 14.9574 21.045 15.1222 21.2916C15.287 21.5383 15.375 21.8283 15.375 22.125C15.375 22.5228 15.217 22.9044 14.9357 23.1857C14.6544 23.467 14.2728 23.625 13.875 23.625ZM13.875 21.375C13.7267 21.375 13.5817 21.419 13.4583 21.5014C13.335 21.5838 13.2389 21.7009 13.1821 21.838C13.1253 21.975 13.1105 22.1258 13.1394 22.2713C13.1684 22.4168 13.2398 22.5504 13.3447 22.6553C13.4496 22.7602 13.5832 22.8317 13.7287 22.8606C13.8742 22.8895 14.025 22.8747 14.162 22.8179C14.2991 22.7611 14.4162 22.665 14.4986 22.5417C14.581 22.4183 14.625 22.2733 14.625 22.125C14.625 21.9261 14.546 21.7353 14.4053 21.5947C14.2647 21.454 14.0739 21.375 13.875 21.375Z" fill="#121212"/>
<path d="M18.375 19.875H12.375V13.875H18.375V19.875ZM13.125 19.125H17.625V14.625H13.125V19.125Z" fill="#121212"/>
<path d="M16.5 18H16.875V18.375H16.5V18Z" fill="#121212"/>
<path d="M15.75 18H16.125V18.375H15.75V18Z" fill="#121212"/>
<path d="M6.75 20.25H4.5V17.625H6.75V20.25ZM5.25 19.5H6V18.375H5.25V19.5Z" fill="#121212"/>
<path d="M16.5 16.5H14.25V13.875H16.5V16.5ZM15 15.75H15.75V14.625H15V15.75Z" fill="#121212"/>
<path d="M22.7363 19.5H20.25C20.1505 19.5 20.0552 19.4605 19.9848 19.3902C19.9145 19.3198 19.875 19.2245 19.875 19.125V17.625C19.875 17.5255 19.9145 17.4302 19.9848 17.3598C20.0552 17.2895 20.1505 17.25 20.25 17.25H22.1738C22.2501 17.2499 22.3246 17.2731 22.3874 17.3166C22.4502 17.36 22.4983 17.4215 22.5251 17.493L23.0876 18.993C23.109 19.0498 23.1162 19.1109 23.1088 19.1711C23.1013 19.2313 23.0794 19.2888 23.0448 19.3386C23.0103 19.3885 22.9642 19.4292 22.9104 19.4573C22.8567 19.4854 22.7969 19.5001 22.7363 19.5ZM20.625 18.75H22.1951L21.9139 18H20.625V18.75Z" fill="#121212"/>
<path d="M23.25 22.5H22.125V21.75H22.5V19.5682L21.4901 16.875H19.5V19.875H12V21.75H12.75V22.5H11.25V19.125H18.75V16.125H22.0099L23.25 19.4318V22.5Z" fill="#121212"/>
<path d="M15 21.75H19.875V22.5H15V21.75Z" fill="#121212"/>
<path d="M13.875 22.5C14.0821 22.5 14.25 22.3321 14.25 22.125C14.25 21.9179 14.0821 21.75 13.875 21.75C13.6679 21.75 13.5 21.9179 13.5 22.125C13.5 22.3321 13.6679 22.5 13.875 22.5Z" fill="#121212"/>
<path d="M21 22.5C21.2071 22.5 21.375 22.3321 21.375 22.125C21.375 21.9179 21.2071 21.75 21 21.75C20.7929 21.75 20.625 21.9179 20.625 22.125C20.625 22.3321 20.7929 22.5 21 22.5Z" fill="#121212"/>
<path d="M21.375 15.7495V5.85629L11.997 1.16729L2.25 5.86004V23.2495C2.25 23.349 2.21049 23.4444 2.14016 23.5147C2.06984 23.585 1.97446 23.6245 1.875 23.6245C1.77554 23.6245 1.68016 23.585 1.60984 23.5147C1.53951 23.4444 1.5 23.349 1.5 23.2495V5.62454C1.50006 5.55402 1.52001 5.48495 1.55756 5.42525C1.5951 5.36555 1.64872 5.31765 1.71225 5.28704L11.8372 0.412043C11.8889 0.387225 11.9455 0.374557 12.0027 0.375012C12.06 0.375467 12.1164 0.389033 12.1676 0.414668L21.9176 5.28967C21.9798 5.32076 22.0322 5.36855 22.0688 5.42769C22.1054 5.48682 22.1249 5.55498 22.125 5.62454V15.7495H21.375Z" fill="#121212"/>
</g>
<defs>
<clipPath id="clip0_337_2615">
<rect width="24" height="24" fill="white"/>
</clipPath>
</defs>
</svg>
