<svg width="24" height="24" viewBox="0 0 24 24" fill="none" xmlns="http://www.w3.org/2000/svg">
<g clip-path="url(#clip0_337_2644)">
<path d="M0.8 23.1992H0V23.9992H0.8V23.1992Z" fill="#121212"/>
<path d="M4.4001 23.1992H1.6001V23.9992H4.4001V23.1992Z" fill="#121212"/>
<path d="M10.4001 18.8008H9.6001V19.6008H10.4001V18.8008Z" fill="#121212"/>
<path d="M15.6002 18.8008H11.2002V19.6008H15.6002V18.8008Z" fill="#121212"/>
<path d="M1.5998 1.19922H0.799805V1.99922H1.5998V1.19922Z" fill="#121212"/>
<path d="M6.7999 1.19922H2.3999V1.99922H6.7999V1.19922Z" fill="#121212"/>
<path d="M20.4097 23.1992H19.6001V23.9992H20.4097V23.1992Z" fill="#121212"/>
<path d="M24.0002 23.1992H21.2002V23.9992H24.0002V23.1992Z" fill="#121212"/>
<path d="M15.6001 20.4004H13.6001V21.2004H15.6001V20.4004Z" fill="#121212"/>
<path d="M24.0001 1.59961H21.6001V2.39961H24.0001V1.59961Z" fill="#121212"/>
<path d="M22.36 12.2296L20.476 8.2296C20.4103 8.09005 20.2703 8.00075 20.116 8H16.4C16.1791 8 16 8.1791 16 8.4V12.4C16 12.6209 16.1791 12.8 16.4 12.8H22C22.2209 12.7989 22.3991 12.6191 22.3981 12.3981C22.3979 12.3398 22.3849 12.2823 22.36 12.2296ZM16.8 12V8.8H19.862L21.3696 12H16.8Z" fill="#121212"/>
<path d="M17.2 13.1992H16V13.9992H17.2V13.1992Z" fill="#121212"/>
<path d="M23.96 11.822L21.56 7.02199C21.4919 6.88574 21.3524 6.79994 21.2 6.80079H14.8C14.5791 6.80079 14.4 6.97989 14.4 7.20079V14.0008H13.6V8.00079C13.6 7.77989 13.4209 7.60079 13.2 7.60079H0.4C0.1791 7.60079 0 7.77989 0 8.00079V17.6008C0 17.8217 0.1791 18.0008 0.4 18.0008H3.636C3.8556 19.3064 5.092 20.1868 6.3976 19.9672C7.40515 19.7977 8.19455 19.0083 8.364 18.0008H17.236C17.4556 19.3064 18.692 20.1868 19.9976 19.9672C21.0051 19.7977 21.7945 19.0083 21.964 18.0008H23.6C23.8209 18.0008 24 17.8217 24 17.6008V12.0008C24.0007 11.9389 23.987 11.8777 23.96 11.822ZM10.4 8.40079H12.8V10.8008H10.4V8.40079ZM10.4 11.6008H12.8V14.0008H10.4V11.6008ZM7.2 8.40079H9.6V10.8008H7.2V8.40079ZM7.2 11.6008H9.6V14.0008H7.2V11.6008ZM4 8.40079H6.4V10.8008H4V8.40079ZM4 11.6008H6.4V14.0008H4V11.6008ZM0.8 8.40079H3.2V10.8008H0.8V8.40079ZM0.8 11.6008H3.2V14.0008H0.8V11.6008ZM6 19.2008C5.11635 19.2008 4.4 18.4844 4.4 17.6008C4.4 16.7171 5.11635 16.0008 6 16.0008C6.88365 16.0008 7.6 16.7171 7.6 17.6008C7.6 18.4844 6.88365 19.2008 6 19.2008ZM14.4 17.2008H8.364C8.1444 15.8952 6.908 15.0148 5.6024 15.2344C4.59485 15.4038 3.80545 16.1932 3.636 17.2008H0.8V14.8008H14.4V17.2008ZM19.6 19.2008C18.7164 19.2008 18 18.4844 18 17.6008C18 16.7171 18.7164 16.0008 19.6 16.0008C20.4837 16.0008 21.2 16.7171 21.2 17.6008C21.2 18.4844 20.4837 19.2008 19.6 19.2008ZM23.2 17.2008H21.964C21.7444 15.8952 20.508 15.0148 19.2024 15.2344C18.1949 15.4038 17.4055 16.1932 17.236 17.2008H15.2V7.60079H20.9528L23.2 12.0952V17.2008Z" fill="#121212"/>
<path d="M11.5998 3.59961H10.7998V4.39961H11.5998V3.59961Z" fill="#121212"/>
<path d="M16.7999 3.59961H12.3999V4.39961H16.7999V3.59961Z" fill="#121212"/>
<path d="M6.4001 17.1992H5.6001V17.9992H6.4001V17.1992Z" fill="#121212"/>
<path d="M20.0002 17.1992H19.2002V17.9992H20.0002V17.1992Z" fill="#121212"/>
</g>
<defs>
<clipPath id="clip0_337_2644">
<rect width="24" height="24" fill="white"/>
</clipPath>
</defs>
</svg>
