<svg width="24" height="24" viewBox="0 0 24 24" fill="none" xmlns="http://www.w3.org/2000/svg">
<path d="M16.6875 20.1094C16.4288 20.1094 16.2188 20.3194 16.2188 20.5781C16.2188 20.8369 16.4288 21.0469 16.6875 21.0469C16.9463 21.0469 17.1562 20.8369 17.1562 20.5781C17.1562 20.3194 16.9463 20.1094 16.6875 20.1094Z" fill="#121212"/>
<path d="M7.3125 20.1094C7.05375 20.1094 6.84375 20.3194 6.84375 20.5781C6.84375 20.8369 7.05375 21.0469 7.3125 21.0469C7.57125 21.0469 7.78125 20.8369 7.78125 20.5781C7.78125 20.3194 7.57125 20.1094 7.3125 20.1094Z" fill="#121212"/>
<path d="M20.9834 17.6817C20.4557 16.865 19.7306 16.216 18.8812 15.7969C18.8095 15.7304 18.7174 15.6858 18.615 15.6744C18.0006 15.4136 17.353 15.2812 16.6875 15.2812H15.2812V14.0445C16.095 13.3463 16.6801 12.4215 16.9638 11.3906H17.1562C18.1901 11.3906 19.0312 10.5495 19.0312 9.51562C19.0312 9.02569 18.8422 8.57925 18.5333 8.24484C18.5628 8.21981 18.5916 8.19375 18.6193 8.16614C18.885 7.90045 19.0312 7.54734 19.0312 7.17188C19.0312 6.55486 18.6316 6.02972 18.0777 5.84081C17.9121 3.68531 16.3993 1.84331 14.3164 1.266C14.193 0.621375 13.661 0 12.9375 0H11.0625C10.339 0 9.80705 0.621375 9.68363 1.266C7.60092 1.84327 6.08827 3.68494 5.92238 5.84016C5.72072 5.90855 5.5358 6.02259 5.38073 6.17761C5.11505 6.4433 4.96875 6.79641 4.96875 7.17188C4.96875 7.60139 5.16253 7.98633 5.46703 8.24447C5.15803 8.57888 4.96875 9.0255 4.96875 9.51562C4.96875 10.5495 5.80988 11.3906 6.84375 11.3906H7.03491C7.27172 12.2511 7.72073 13.0411 8.34713 13.6936C8.46483 13.8164 8.58961 13.9333 8.71875 14.0442V15.2812H7.3125C6.64697 15.2812 5.99934 15.4136 5.385 15.6743C5.28262 15.6858 5.19047 15.7303 5.11889 15.7968C4.26938 16.216 3.54431 16.865 3.01664 17.6817C2.45377 18.5529 2.15625 19.5545 2.15625 20.5781V23.5312C2.15625 23.7901 2.36611 24 2.625 24H21.375C21.6339 24 21.8438 23.7901 21.8438 23.5312V20.5781C21.8438 19.5545 21.5462 18.5529 20.9834 17.6817ZM4.96875 23.0625H3.09375V20.5781C3.09375 19.1523 3.82416 17.7857 4.96875 16.9745V23.0625ZM17.1562 10.4531H17.1349C17.1488 10.2972 17.1562 10.1407 17.1562 9.98438V8.57812C17.6732 8.57812 18.0938 8.99869 18.0938 9.51562C18.0938 10.0326 17.6732 10.4531 17.1562 10.4531ZM9.65625 2.25652V4.35938C9.65625 4.61827 9.86611 4.82812 10.125 4.82812C10.3839 4.82812 10.5938 4.61827 10.5938 4.35938V1.64358C10.5938 1.64236 10.5938 1.64114 10.5938 1.63992V1.54688C10.5938 1.25644 10.8391 0.9375 11.0625 0.9375H12.9375C13.1609 0.9375 13.4062 1.25644 13.4062 1.54688V1.63992C13.4062 1.64114 13.4062 1.64236 13.4062 1.64358V4.35938C13.4062 4.61827 13.6161 4.82812 13.875 4.82812C14.1339 4.82812 14.3438 4.61827 14.3438 4.35938V2.25652C15.8573 2.79216 16.95 4.16184 17.13 5.76562H6.86995C7.05 4.16184 8.14266 2.79216 9.65625 2.25652ZM6.84375 10.4531C6.32681 10.4531 5.90625 10.0326 5.90625 9.51562C5.90625 8.99869 6.32681 8.57812 6.84375 8.57812V9.98438C6.84375 10.1407 6.85116 10.2972 6.86512 10.4531H6.84375ZM6.84375 7.64062H6.375C6.11653 7.64062 5.90625 7.43034 5.90625 7.17188C5.90625 7.04681 5.95505 6.92911 6.04364 6.84056C6.13228 6.75192 6.24994 6.70312 6.375 6.70312H17.625C17.8835 6.70312 18.0938 6.91341 18.0938 7.17188C18.0938 7.29694 18.045 7.41464 17.9564 7.50319C17.8678 7.59183 17.7501 7.64062 17.625 7.64062H17.1562H16.6875H7.3125H6.84375ZM7.86642 10.8367C7.86548 10.8316 7.86459 10.8265 7.86347 10.8215C7.80905 10.5464 7.78125 10.2648 7.78125 9.98438V8.57812H16.2188V9.98438C16.2188 10.2646 16.191 10.546 16.1365 10.8213C16.1354 10.8264 16.1345 10.8315 16.1336 10.8366C15.9241 11.8822 15.3443 12.8182 14.5001 13.4729C13.7667 14.0426 12.9022 14.3438 12 14.3438C11.0978 14.3438 10.2333 14.0426 9.49917 13.4724C9.33113 13.3424 9.17119 13.1985 9.02362 13.0446C8.4323 12.4286 8.03236 11.6654 7.86642 10.8367ZM11.5312 23.0625H7.78125V21.9844C7.78125 21.7255 7.57139 21.5156 7.3125 21.5156C7.05361 21.5156 6.84375 21.7255 6.84375 21.9844V23.0625H5.90625V16.4753C6.21047 16.3606 6.52388 16.2842 6.84375 16.2465V19.1719C6.84375 19.4308 7.05361 19.6406 7.3125 19.6406C7.57139 19.6406 7.78125 19.4308 7.78125 19.1719V16.2188H8.98664L11.5312 18.8906V23.0625ZM9.65625 15.5625V14.6894C10.3796 15.0782 11.1763 15.2812 12 15.2812C12.8238 15.2812 13.6205 15.0782 14.3438 14.6895V15.5625L12 18.0234L9.65625 15.5625ZM18.0938 23.0625H17.1562V21.9844C17.1562 21.7255 16.9464 21.5156 16.6875 21.5156C16.4286 21.5156 16.2188 21.7255 16.2188 21.9844V23.0625H12.4688V18.8906L15.0134 16.2188H16.2188V19.1719C16.2188 19.4308 16.4286 19.6406 16.6875 19.6406C16.9464 19.6406 17.1562 19.4308 17.1562 19.1719V16.2465C17.4761 16.2842 17.7895 16.3607 18.0938 16.4754V23.0625ZM20.9062 23.0625H19.0312V16.9744C20.1758 17.7857 20.9062 19.1523 20.9062 20.5781V23.0625Z" fill="#121212"/>
</svg>
